<svg width="223" height="62" viewBox="0 0 223 62" fill="none" xmlns="http://www.w3.org/2000/svg">
<g clip-path="url(#clip0_779_2759)">
<path d="M123.4 60.4929C122.794 60.2461 122.269 59.8377 121.885 59.3134C121.509 58.7801 121.309 58.1448 121.313 57.4948H123.767C123.772 57.7039 123.818 57.91 123.904 58.1013C123.99 58.2926 124.113 58.4652 124.267 58.6095C124.61 58.8972 125.051 59.0435 125.501 59.018C125.954 59.0456 126.401 58.9094 126.76 58.6349C126.911 58.5133 127.032 58.3591 127.113 58.1842C127.194 58.0094 127.233 57.8186 127.228 57.6263C127.239 57.3184 127.128 57.0183 126.917 56.7908C126.7 56.5647 126.435 56.3889 126.141 56.2761C125.721 56.1134 125.292 55.974 124.856 55.8584C124.239 55.6839 123.635 55.4672 123.049 55.2098C122.576 54.9896 122.166 54.6574 121.855 54.2428C121.498 53.7381 121.323 53.1307 121.355 52.5164C121.341 51.8895 121.517 51.2728 121.862 50.7462C122.213 50.2335 122.707 49.8326 123.285 49.5921C123.95 49.3133 124.666 49.1764 125.388 49.1906C126.566 49.1906 127.524 49.4767 128.261 50.0491C128.628 50.3382 128.927 50.7026 129.137 51.117C129.347 51.5315 129.464 51.9861 129.478 52.4494H126.959C126.952 52.2613 126.903 52.077 126.818 51.9089C126.732 51.7408 126.61 51.593 126.461 51.4755C126.109 51.2055 125.67 51.0688 125.225 51.09C124.837 51.0708 124.456 51.1932 124.154 51.4339C124.017 51.5607 123.909 51.7161 123.84 51.8889C123.77 52.0618 123.74 52.2477 123.752 52.4333C123.748 52.574 123.773 52.7139 123.825 52.8448C123.878 52.9757 123.956 53.0948 124.056 53.1949C124.271 53.4068 124.527 53.574 124.809 53.6866C125.223 53.8525 125.646 53.9973 126.076 54.1204C126.696 54.2943 127.303 54.5134 127.891 54.7759C128.37 55.002 128.785 55.3394 129.102 55.7591C129.461 56.2604 129.639 56.8656 129.609 57.4786C129.613 58.0957 129.439 58.7011 129.108 59.2245C128.777 59.7479 128.303 60.1677 127.74 60.4352C127.063 60.7598 126.316 60.9181 125.564 60.8968C124.822 60.9124 124.085 60.7748 123.4 60.4929Z" fill="white"/>
<path d="M148.462 49.3544L144.601 56.807V60.7883H142.311V56.807L138.434 49.3544H141.018L143.472 54.5797L145.91 49.3544H148.462Z" fill="white"/>
<path d="M159.39 60.4929C158.785 60.247 158.261 59.8384 157.878 59.3135C157.5 58.7811 157.3 58.1452 157.306 57.4948H159.76C159.77 57.9167 159.949 58.3173 160.258 58.6095C160.601 58.897 161.044 59.0432 161.494 59.018C161.947 59.0439 162.394 58.9079 162.754 58.6349C162.904 58.5129 163.024 58.3587 163.105 58.1839C163.186 58.0092 163.226 57.8185 163.221 57.6264C163.231 57.3185 163.12 57.0188 162.91 56.7908C162.692 56.5652 162.426 56.3895 162.132 56.2762C161.712 56.1138 161.284 55.9743 160.849 55.8584C160.231 55.6839 159.627 55.4672 159.04 55.2098C158.568 54.9891 158.157 54.657 157.846 54.2428C157.49 53.7379 157.315 53.1305 157.348 52.5164C157.333 51.8894 157.509 51.2725 157.855 50.7462C158.205 50.2325 158.7 49.8314 159.278 49.5922C159.943 49.3131 160.66 49.1762 161.382 49.1906C162.56 49.1906 163.516 49.4768 164.252 50.0492C164.619 50.3384 164.918 50.7028 165.128 51.1172C165.339 51.5316 165.456 51.9861 165.472 52.4495H162.952C162.944 52.2613 162.895 52.0771 162.809 51.9091C162.722 51.7412 162.601 51.5933 162.452 51.4755C162.1 51.206 161.663 51.0694 161.218 51.0901C160.83 51.0705 160.448 51.1929 160.145 51.434C160.008 51.5609 159.901 51.7164 159.832 51.8892C159.762 52.062 159.733 52.2479 159.746 52.4333C159.741 52.5738 159.766 52.7138 159.817 52.8447C159.869 52.9756 159.947 53.0947 160.047 53.1949C160.263 53.4063 160.518 53.5734 160.8 53.6866C161.215 53.8529 161.638 53.9977 162.069 54.1205C162.689 54.2951 163.296 54.5142 163.885 54.776C164.362 55.0031 164.777 55.3403 165.095 55.7592C165.453 56.261 165.631 56.8658 165.603 57.4786C165.607 58.0786 165.446 58.6685 165.135 59.1843C164.801 59.7233 164.319 60.1572 163.744 60.4352C163.067 60.7592 162.321 60.9175 161.569 60.8968C160.822 60.9143 160.08 60.7767 159.39 60.4929Z" fill="white"/>
<path d="M183.127 49.3544V51.2008H180.089V60.7837H177.796V51.2055H174.758V49.3591L183.127 49.3544Z" fill="white"/>
<path d="M194.889 51.2055V54.072H198.734V55.8907H194.889V58.9211H199.224V60.7883H192.599V49.3383H199.224V51.2055H194.889Z" fill="white"/>
<path d="M221.558 49.3544V60.7883H219.268V53.3496L216.209 60.7883H214.474L211.399 53.3496V60.7883H209.108V49.3544H211.71L215.341 57.8548L218.973 49.3544H221.558Z" fill="white"/>
<path d="M216.241 26.0181C216.241 27.6337 216.229 29.2494 216.241 30.8535C216.241 33.8239 216.241 36.7966 216.288 39.7693C216.302 40.9394 216.776 42.0265 218.08 41.9619C219.695 41.8834 221.644 42.7674 222.799 40.8079C222.902 40.5781 222.943 40.3264 222.92 40.0763C222.92 38.4145 222.892 36.7527 222.876 35.0932C222.853 31.412 223.322 27.7076 222.614 24.054C220.878 15.1082 209.706 11.0623 202.861 16.8992C201.992 17.6424 201.569 17.6401 200.65 16.9546C196.588 13.9196 192.122 13.3241 187.548 15.6252C183.148 17.8386 181.063 21.5845 181.082 26.4728C181.004 27.396 180.972 28.3192 180.962 29.2424C180.864 32.9768 181.009 36.7111 181.042 40.4455C181.042 40.734 181.089 41.0548 181.413 41.2164C182.495 42.6312 184.045 41.9088 185.386 41.9988C186.803 42.098 187.551 41.3064 187.576 39.9078C187.609 38.2022 187.56 36.4942 187.546 34.7863C187.546 32.4583 187.546 30.1295 187.546 27.7999C187.565 27.3383 187.586 26.8952 187.602 26.4428C187.717 23.0593 190.021 20.7905 193.307 20.8251C196.413 20.8574 198.556 23.1332 198.624 26.4521C198.647 27.6061 198.661 28.7601 198.68 29.9279C198.657 32.6029 198.622 35.2802 198.61 37.9551C198.589 42.0196 198.593 42.0196 202.634 42.0011C204.581 42.0011 205.186 41.3987 205.191 39.4623C205.191 38.9084 205.14 38.3568 205.112 37.8028C205.135 34.02 205.133 30.2372 205.196 26.4544C205.24 23.7056 206.554 21.8591 208.874 21.1067C212.403 19.9781 215.53 22.0553 216.241 26.0181Z" fill="url(#paint0_linear_779_2759)"/>
<path d="M45.9129 34.7748C46.4761 35.8757 47.217 35.901 48.0958 35.1279C48.4555 34.7724 48.8414 34.4438 49.2503 34.1446C51.8538 32.4506 52.9195 27.156 52.5924 23.9894C52.3399 21.5614 52.5059 21.2845 54.4457 20.9729C54.7062 20.9987 54.9691 20.959 55.2099 20.8575C56.3785 20.8783 57.547 20.9175 58.7156 20.9198C62.8219 20.9198 62.8219 20.9198 62.8382 16.8069C62.8382 15.0828 62.2446 14.4989 60.459 14.4989C58.3159 14.4989 56.1751 14.5451 54.0343 14.522C53.5225 14.522 52.8891 14.8013 52.5175 14.1573C52.8611 11.7432 53.9198 9.74673 55.9788 8.325C57.8345 7.04405 59.8888 6.67941 62.1114 6.89867C63.7474 7.06023 64.4064 6.474 64.4485 4.88609C64.4765 3.87518 64.4134 2.86193 64.4485 1.85103C64.4906 0.780111 63.9414 0.286196 62.9411 0.117711C61.6603 -0.0992415 60.3866 0.0115361 59.1129 0.168481C52.2044 1.02014 46.7729 6.16932 46.0671 12.5325C45.6394 13.4349 45.7657 14.4089 45.761 15.3482C45.7353 20.0681 45.747 27.8253 45.761 32.5475C45.7867 33.2907 45.5389 34.057 45.9129 34.7748Z" fill="url(#paint1_linear_779_2759)"/>
<path d="M143.529 37.4128C143.557 36.2449 142.957 35.5479 141.823 35.4948C139.332 35.3794 137.504 34.1377 135.95 32.3559L134.688 29.9394C134.22 27.1491 134.515 24.3402 134.499 21.5383C134.499 20.9752 134.943 20.9521 135.375 20.9521C136.543 20.9521 137.731 20.936 138.909 20.929C143.151 20.906 143.15 20.9059 143.073 16.74C143.045 15.1659 142.459 14.5451 140.865 14.5128C139.229 14.4781 137.581 14.4135 135.957 14.5335C134.625 14.6327 134.302 14.1504 134.403 12.9179C134.517 11.5631 134.431 10.1898 134.442 8.8258C134.454 7.55178 133.786 6.85017 132.556 6.6563C129.925 6.24316 128.333 6.69088 127.92 7.95106C127.834 8.24265 127.796 8.54558 127.805 8.8489C127.847 15.1651 127.895 21.4829 127.948 27.8022C127.816 29.1233 127.952 30.457 128.347 31.7258C129.857 37.3481 135.092 41.5857 141.024 41.9873C142.921 42.1165 143.52 41.5695 143.536 39.6793C143.538 38.9269 143.513 38.1698 143.529 37.4128Z" fill="url(#paint2_linear_779_2759)"/>
<path d="M175.767 18.5771C175.849 14.4666 175.749 14.3974 171.635 14.4528C169.532 14.4805 169.081 14.949 169.086 17.0839C169.086 18.9557 169.118 20.8252 169.1 22.6946C169.072 25.6951 169.345 28.7347 168.457 31.6843C166.653 34.5647 164.171 36.0949 160.644 35.4002C157.858 34.8532 156.316 32.9353 155.318 30.4726C155.283 30.1933 155.248 29.9141 155.21 29.6348C155.21 25.5704 155.236 21.5083 155.231 17.4439C155.231 16.86 155.416 16.2391 155.021 15.6944C154.659 14.7712 153.944 14.4274 152.978 14.4481C152.111 14.4666 151.242 14.4481 150.375 14.4481C149.136 14.4643 148.468 15.099 148.475 16.3176C148.505 20.9544 148.563 25.5912 148.61 30.228C148.895 33.4505 150.363 36.4592 152.738 38.6871C155.113 40.9151 158.231 42.2087 161.504 42.3243C168.389 42.5551 174.346 37.6736 175.489 30.835C176.043 26.7637 175.686 22.6646 175.767 18.5771Z" fill="url(#paint3_linear_779_2759)"/>
<path d="M121.948 16.3268C121.962 14.8774 121.013 14.4435 119.758 14.3512C116.818 14.1342 115.551 14.5589 115.297 15.8791C115.275 16.0319 115.268 16.1865 115.275 16.3407C115.3 22.8031 115.328 29.2586 115.357 35.7071C115.273 37.4243 115.198 39.1415 115.416 40.854C116.351 42.3127 120.38 42.6335 121.469 41.348C121.732 41.0414 121.871 40.6489 121.857 40.247C121.857 39.5546 121.817 38.8507 121.796 38.1537V29.951C121.846 25.4073 121.897 20.8659 121.948 16.3268Z" fill="url(#paint4_linear_779_2759)"/>
<path d="M39.8613 25.8543C39.8408 25.6708 39.7936 25.4912 39.721 25.3211C39.104 22.2353 37.7695 19.5235 35.2595 17.5178C30.9943 14.1043 26.1915 13.331 21.1574 15.3944C16.392 17.3516 13.716 21.0536 13.1972 26.1889C13.0907 26.5798 13.0559 26.9862 13.0943 27.3892C12.7695 31.7121 13.0009 36.0465 13.0593 40.3717C13.078 41.6273 14.2138 42.0727 15.4221 41.9711C16.9459 41.8442 18.8203 42.6635 19.6289 40.5332C19.6834 40.3381 19.7016 40.1347 19.6826 39.9331C19.6826 37.4128 19.6717 34.8925 19.6499 32.3721L19.664 27.7999C19.8346 26.3459 20.0543 24.9242 20.926 23.6571C23.4968 19.9319 30.3609 19.2442 32.9902 25.0673C33.3369 26.434 33.4941 27.8409 33.4576 29.2494C33.4576 33.023 33.4926 36.7942 33.5113 40.5586C33.6679 41.7126 34.5093 42.0565 35.4769 41.9734C36.9539 41.8511 38.7137 42.6797 39.7584 40.9025C39.8959 40.637 39.9649 40.3421 39.9594 40.0439C39.9594 38.3914 39.9594 36.7389 39.9407 35.084C39.9688 33.8262 40.0435 32.566 40.0108 31.3081C39.9874 29.4964 40.2726 27.6568 39.8613 25.8543ZM13.2907 28.0215V28.0538V28.0169V28.0215ZM18.049 31.3105C18.1005 31.3064 18.1523 31.3143 18.2002 31.3336C18.2481 31.3528 18.2907 31.3828 18.3248 31.4212C18.229 31.3797 18.1425 31.3428 18.049 31.3105Z" fill="url(#paint5_linear_779_2759)"/>
<path d="M7.14435 17.047C7.16539 15.7499 6.85223 14.7528 5.44062 14.3951C3.18998 13.8227 1.36704 14.3073 0.593456 15.6852C0.510008 15.8657 0.452585 16.0568 0.422852 16.253C0.422852 24.1787 0.422852 32.1029 0.422852 40.0255C0.422852 41.2995 1.16838 41.9181 2.4608 41.9873C5.56916 42.1581 6.75174 41.7565 7.04855 40.3717C7.07422 40.2192 7.08284 40.0644 7.07426 39.9101C7.06023 38.396 7.04464 36.8827 7.0275 35.3702V28.6885C7.06957 24.8249 7.07891 20.9336 7.14435 17.047Z" fill="url(#paint6_linear_779_2759)"/>
<path d="M75.8181 14.3674C73.6002 13.8157 72.2119 14.2451 71.6113 15.9437C70.8704 18.039 69.6191 19.9222 67.9677 21.4276C64.7799 24.1464 61.4238 26.6644 58.3856 29.5587L58.402 29.5748C57.1446 30.3503 56.1677 31.4512 55.0459 32.3837C52.4751 34.6201 49.7009 36.6466 48.0088 39.6977C45.2955 44.166 45.1529 48.7521 47.3591 53.4466C47.5437 53.9109 47.7544 54.3647 47.9901 54.8059C51.1592 60.0797 57.8808 62.9763 63.9456 61.6954C70.2558 60.3613 75.0515 55.2699 75.8508 49.0359C76.552 44.2053 75.0913 40.0832 71.644 36.635C69.8678 34.8601 69.8094 34.874 67.8626 36.4966C67.3952 36.8866 66.9277 37.2697 66.486 37.699C65.224 38.9661 65.217 39.797 66.5632 40.9995C67.89 42.1284 68.7761 43.6794 69.0685 45.3847C69.4355 47.4758 68.8886 49.3729 68.0075 51.2239C66.9534 52.6872 65.7078 53.9151 63.9643 54.5751C60.1221 56.0315 56.5299 54.7506 53.6389 50.8823C53.0817 49.6398 52.8062 48.2921 52.8317 46.9334C52.8571 45.5748 53.1829 44.238 53.7862 43.0167C54.5481 41.8142 55.5647 40.8449 56.6374 39.9124C58.9021 37.9483 61.1457 35.9611 63.3987 33.9808C66.6894 31.2435 69.9683 28.4924 72.9598 25.4274C75.311 23.1909 76.8137 20.5021 77.2274 17.294C77.3582 16.0961 77.4845 14.7828 75.8181 14.3674Z" fill="url(#paint7_linear_779_2759)"/>
<path d="M3.68994 3.17581C2.70926 3.18251 1.77102 3.57177 1.07975 4.25875C0.388479 4.94574 0.000227569 5.87477 -0.000365757 6.84326C-0.00959099 7.34964 0.0857684 7.85255 0.279905 8.32132C0.474041 8.79009 0.762889 9.21484 1.12879 9.56971C1.49469 9.92457 1.92998 10.2021 2.4081 10.3853C2.88621 10.5685 3.3971 10.6536 3.90961 10.6353C6.02937 10.6099 7.56253 9.07506 7.57188 6.97016C7.57889 4.76139 5.90552 3.12965 3.68994 3.17581Z" fill="url(#paint8_linear_779_2759)"/>
<path d="M73.065 10.296C75.0936 10.2776 76.6501 8.64583 76.6314 6.55939C76.6342 5.56653 76.2375 4.61319 75.5286 3.90919C74.8196 3.20518 73.8565 2.80814 72.8511 2.80539C71.8457 2.80263 70.8804 3.19442 70.1675 3.89454C69.4547 4.59465 69.0526 5.54574 69.0498 6.5386C69.0732 8.55349 70.9569 10.3168 73.065 10.296Z" fill="url(#paint9_linear_779_2759)"/>
<path d="M118.786 3.22891C118.287 3.21315 117.791 3.29642 117.325 3.4738C116.86 3.65118 116.435 3.91907 116.077 4.26154C115.718 4.60401 115.433 5.0141 115.238 5.4675C115.043 5.92089 114.942 6.40838 114.941 6.90099C114.941 9.03128 116.442 10.5569 118.566 10.5776C120.843 10.5984 122.408 9.12817 122.411 6.96787C122.427 5.99877 122.056 5.06245 121.377 4.36235C120.698 3.66224 119.767 3.25492 118.786 3.22891Z" fill="url(#paint10_linear_779_2759)"/>
<path d="M109.529 38.7353C109.529 38.4375 109.489 38.1352 109.468 37.8352C109.487 34.9594 109.534 32.0859 109.51 29.2101C109.499 27.913 109.711 26.5882 109.206 25.3257C108.917 23.5665 108.268 21.8839 107.298 20.3807C106.328 18.8775 105.059 17.5853 103.566 16.5829C102.074 15.5805 100.391 14.8889 98.6186 14.5504C96.8467 14.212 95.0235 14.2337 93.2603 14.6143C87.2703 15.8929 82.8765 20.719 82.6919 26.2236C82.3834 26.9483 82.4582 27.7169 82.4582 28.4716C82.4441 31.6082 82.4582 34.7447 82.4582 37.8813C82.4582 41.9596 82.5493 42.0357 86.665 42.0196C88.4155 42.008 89.1283 41.3757 89.1376 39.6723C89.1634 35.5179 89.1376 31.3773 89.1376 27.2298C89.1587 27.0798 89.1774 26.9298 89.2031 26.7682C89.8551 23.0316 92.475 20.7836 96.1466 20.8044C99.5822 20.8228 102.125 23.2416 102.751 26.9183C103.219 29.6348 102.751 32.3628 103.025 35.0724C102.92 36.9996 102.833 38.9268 103.09 40.8425C103.102 40.9949 103.154 41.1416 103.241 41.2677C103.329 41.3937 103.448 41.4947 103.588 41.5603C105.18 42.3311 106.886 42.2873 108.468 41.7495C109.858 41.2903 109.499 39.8662 109.529 38.7353ZM88.5767 30.7357H88.5931C88.589 30.7516 88.5836 30.767 88.5767 30.7819V30.7357Z" fill="url(#paint11_linear_779_2759)"/>
</g>
<defs>
<linearGradient id="paint0_linear_779_2759" x1="-12.6368" y1="29.5933" x2="205.768" y2="28.1307" gradientUnits="userSpaceOnUse">
<stop stop-color="#9B4AAD"/>
<stop offset="0.24" stop-color="#7B4EBE"/>
<stop offset="0.48" stop-color="#4F60CC"/>
<stop offset="0.82" stop-color="#3D70CC"/>
<stop offset="1" stop-color="#2B97CF"/>
</linearGradient>
<linearGradient id="paint1_linear_779_2759" x1="-12.7953" y1="18.2679" x2="205.846" y2="16.803" gradientUnits="userSpaceOnUse">
<stop stop-color="#9B4AAD"/>
<stop offset="0.24" stop-color="#7B4EBE"/>
<stop offset="0.48" stop-color="#4F60CC"/>
<stop offset="0.82" stop-color="#3D70CC"/>
<stop offset="1" stop-color="#2B97CF"/>
</linearGradient>
<linearGradient id="paint2_linear_779_2759" x1="-12.6666" y1="25.2335" x2="205.74" y2="23.7709" gradientUnits="userSpaceOnUse">
<stop stop-color="#9B4AAD"/>
<stop offset="0.24" stop-color="#7B4EBE"/>
<stop offset="0.48" stop-color="#4F60CC"/>
<stop offset="0.82" stop-color="#3D70CC"/>
<stop offset="1" stop-color="#2B97CF"/>
</linearGradient>
<linearGradient id="paint3_linear_779_2759" x1="-12.6362" y1="29.4963" x2="205.757" y2="28.0362" gradientUnits="userSpaceOnUse">
<stop stop-color="#9B4AAD"/>
<stop offset="0.24" stop-color="#7B4EBE"/>
<stop offset="0.48" stop-color="#4F60CC"/>
<stop offset="0.82" stop-color="#3D70CC"/>
<stop offset="1" stop-color="#2B97CF"/>
</linearGradient>
<linearGradient id="paint4_linear_779_2759" x1="-12.6417" y1="29.0786" x2="205.766" y2="27.616" gradientUnits="userSpaceOnUse">
<stop stop-color="#9B4AAD"/>
<stop offset="0.24" stop-color="#7B4EBE"/>
<stop offset="0.48" stop-color="#4F60CC"/>
<stop offset="0.82" stop-color="#3D70CC"/>
<stop offset="1" stop-color="#2B97CF"/>
</linearGradient>
<linearGradient id="paint5_linear_779_2759" x1="-12.6442" y1="28.4554" x2="205.761" y2="26.9952" gradientUnits="userSpaceOnUse">
<stop stop-color="#9B4AAD"/>
<stop offset="0.24" stop-color="#7B4EBE"/>
<stop offset="0.48" stop-color="#4F60CC"/>
<stop offset="0.82" stop-color="#3D70CC"/>
<stop offset="1" stop-color="#2B97CF"/>
</linearGradient>
<linearGradient id="paint6_linear_779_2759" x1="-12.6462" y1="28.2016" x2="205.758" y2="26.739" gradientUnits="userSpaceOnUse">
<stop stop-color="#9B4AAD"/>
<stop offset="0.24" stop-color="#7B4EBE"/>
<stop offset="0.48" stop-color="#4F60CC"/>
<stop offset="0.82" stop-color="#3D70CC"/>
<stop offset="1" stop-color="#2B97CF"/>
</linearGradient>
<linearGradient id="paint7_linear_779_2759" x1="-12.576" y1="38.5945" x2="205.829" y2="37.132" gradientUnits="userSpaceOnUse">
<stop stop-color="#9B4AAD"/>
<stop offset="0.24" stop-color="#7B4EBE"/>
<stop offset="0.48" stop-color="#4F60CC"/>
<stop offset="0.82" stop-color="#3D70CC"/>
<stop offset="1" stop-color="#2B97CF"/>
</linearGradient>
<linearGradient id="paint8_linear_779_2759" x1="-12.789" y1="7.01403" x2="205.618" y2="5.55149" gradientUnits="userSpaceOnUse">
<stop stop-color="#9B4AAD"/>
<stop offset="0.24" stop-color="#7B4EBE"/>
<stop offset="0.48" stop-color="#4F60CC"/>
<stop offset="0.82" stop-color="#3D70CC"/>
<stop offset="1" stop-color="#2B97CF"/>
</linearGradient>
<linearGradient id="paint9_linear_779_2759" x1="-12.7866" y1="7.12252" x2="205.619" y2="5.65998" gradientUnits="userSpaceOnUse">
<stop stop-color="#9B4AAD"/>
<stop offset="0.24" stop-color="#7B4EBE"/>
<stop offset="0.48" stop-color="#4F60CC"/>
<stop offset="0.82" stop-color="#3D70CC"/>
<stop offset="1" stop-color="#2B97CF"/>
</linearGradient>
<linearGradient id="paint10_linear_779_2759" x1="-12.7838" y1="7.75954" x2="205.623" y2="6.29701" gradientUnits="userSpaceOnUse">
<stop stop-color="#9B4AAD"/>
<stop offset="0.24" stop-color="#7B4EBE"/>
<stop offset="0.48" stop-color="#4F60CC"/>
<stop offset="0.82" stop-color="#3D70CC"/>
<stop offset="1" stop-color="#2B97CF"/>
</linearGradient>
<linearGradient id="paint11_linear_779_2759" x1="-12.6412" y1="28.9747" x2="205.766" y2="27.5145" gradientUnits="userSpaceOnUse">
<stop stop-color="#9B4AAD"/>
<stop offset="0.24" stop-color="#7B4EBE"/>
<stop offset="0.48" stop-color="#4F60CC"/>
<stop offset="0.82" stop-color="#3D70CC"/>
<stop offset="1" stop-color="#2B97CF"/>
</linearGradient>
<clipPath id="clip0_779_2759">
<rect width="223" height="62" fill="white"/>
</clipPath>
</defs>
</svg>
